# xmcd
#
# Track frame offsets:
#	150
#	15905
#	28582
#	41707
#	51532
#	72157
#	91057
#
# Disc length: 1400 seconds
#
# Revision: 0
# Processed by: cddbd v1.5.1PL0 Copyright (c) Steve Scherf et al.
# Submitted via: dBpowerAMP V4.0
#
DISCID=51057607
DTITLE=Prairie Oyster - North Americana
DYEAR=1900
DGENRE=Country
TTITLE0=Such A Lonely One
TTITLE1=Everybody Knows
TTITLE2=Can't Say Goodbye
TTITLE3=One Precious Love
TTITLE4=Meet Me On The Corner
TTITLE5=Different Kind Of Fire
TTITLE6=Goodbye, So Long, Hello
EXTD=
EXTT0=
EXTT1=
EXTT2=
EXTT3=
EXTT4=
EXTT5=
EXTT6=
PLAYORDER=
